<?xml version="1.0" encoding="utf-8"?>
<!-- Generator: Adobe Illustrator 15.0.2, SVG Export Plug-In . SVG Version: 6.00 Build 0)  -->
<!DOCTYPE svg PUBLIC "-//W3C//DTD SVG 1.1//EN" "http://www.w3.org/Graphics/SVG/1.1/DTD/svg11.dtd">
<svg version="1.1" xmlns="http://www.w3.org/2000/svg" xmlns:xlink="http://www.w3.org/1999/xlink" x="0px" y="0px" width="32px"
	 height="32px" viewBox="0 0 32 32" enable-background="new 0 0 32 32" xml:space="preserve">
<g id="Layer_1">
	<g opacity="0.4">
		<g>
			<path stroke="#3C3C3C" stroke-width="1.5" d="M26.604,14.103h-1.988c-0.734-3.35-3.368-5.981-6.717-6.717V5.398
				c0-1.048-0.849-1.899-1.896-1.899c-1.049,0-1.897,0.851-1.897,1.899v1.986c-3.352,0.735-5.983,3.369-6.72,6.717H5.398
				c-1.05,0-1.898,0.85-1.898,1.899s0.851,1.896,1.899,1.896h1.985c0.735,3.35,3.368,5.983,6.72,6.719v1.988
				c0,1.047,0.848,1.896,1.897,1.896c1.048,0,1.896-0.852,1.896-1.896v-1.988c3.352-0.736,5.984-3.369,6.72-6.719h1.985
				c1.049,0,1.897-0.849,1.897-1.896C28.501,14.951,27.652,14.103,26.604,14.103z M16,21.029c-2.777-0.006-5.023-2.252-5.03-5.026
				v-0.001c0-0.001,0-0.001,0-0.003c0.006-2.777,2.253-5.022,5.03-5.025c2.777,0.005,5.025,2.251,5.025,5.028h0.002
				C21.025,18.777,18.777,21.023,16,21.029z"/>

		</g>
		<circle fill="#FFFFFF" cx="16.002" cy="16" r="2.109"/>
	</g>
	<g>
		<g>
			<path fill="#FFFFFF" stroke="#000000" stroke-width="0.2" d="M26.604,14.103h-1.988c-0.734-3.35-3.368-5.981-6.717-6.717V5.398
				c0-1.048-0.849-1.899-1.896-1.899c-1.049,0-1.897,0.851-1.897,1.899v1.986c-3.352,0.735-5.983,3.369-6.72,6.717H5.398
				c-1.05,0-1.898,0.85-1.898,1.899s0.851,1.896,1.899,1.896h1.985c0.735,3.35,3.368,5.983,6.72,6.719v1.988
				c0,1.047,0.848,1.896,1.897,1.896c1.048,0,1.896-0.852,1.896-1.896v-1.988c3.352-0.736,5.984-3.369,6.72-6.719h1.985
				c1.049,0,1.897-0.849,1.897-1.896C28.501,14.951,27.652,14.103,26.604,14.103z M16,21.029c-2.777-0.006-5.023-2.252-5.03-5.026
				v-0.001c0-0.001,0-0.001,0-0.003c0.006-2.777,2.253-5.022,5.03-5.025c2.777,0.005,5.025,2.251,5.025,5.028h0.002
				C21.025,18.777,18.777,21.023,16,21.029z"/>
		</g>
		<circle fill="#FFFFFF" cx="16.002" cy="16" r="2.109"/>
	</g>
</g>
<g id="red">
	<g>
		
             <animate attributeType = "CSS" attributeName = "opacity" values = "0;0.5;0" dur = "1.2s" repeatCount = "indefinite"/>

                <g>
			<path fill="#FF0000" stroke="#000000" stroke-width="0.2" d="M26.604,14.103h-1.988c-0.734-3.35-3.368-5.981-6.717-6.717V5.398
				c0-1.048-0.849-1.899-1.896-1.899c-1.049,0-1.897,0.851-1.897,1.899v1.986c-3.352,0.735-5.983,3.369-6.72,6.717H5.398
				c-1.05,0-1.898,0.85-1.898,1.899s0.851,1.896,1.899,1.896h1.985c0.735,3.35,3.368,5.983,6.72,6.719v1.988
				c0,1.047,0.848,1.896,1.897,1.896c1.048,0,1.896-0.852,1.896-1.896v-1.988c3.352-0.736,5.984-3.369,6.72-6.719h1.985
				c1.049,0,1.897-0.849,1.897-1.896C28.501,14.951,27.652,14.103,26.604,14.103z M16,21.029c-2.777-0.006-5.023-2.252-5.03-5.026
				v-0.001c0-0.001,0-0.001,0-0.003c0.006-2.777,2.253-5.022,5.03-5.025c2.777,0.005,5.025,2.251,5.025,5.028h0.002
				C21.025,18.777,18.777,21.023,16,21.029z"/>
		</g>
		<circle fill="#FFFFFF" cx="16.002" cy="16" r="2.109"/>



	</g>
</g>
</svg>
